<mxfile host="app.diagrams.net" modified="2021-07-27T05:27:46.888Z" agent="5.0 (Windows NT 10.0; Win64; x64) AppleWebKit/537.36 (KHTML, like Gecko) Chrome/92.0.4515.107 Safari/537.36" etag="Oadqe4j_A1LQyluxZnJw" version="14.9.2" type="github">
  <diagram name="Page-1" id="7a6c530e-6e37-e111-ec74-82921da8cc10">
    <mxGraphModel dx="782" dy="514" grid="1" gridSize="10" guides="1" tooltips="1" connect="1" arrows="1" fold="1" page="1" pageScale="1.5" pageWidth="1169" pageHeight="826" background="#ffffff" math="0" shadow="0">
      <root>
        <mxCell id="0" style=";html=1;" />
        <mxCell id="1" style=";html=1;" parent="0" />
        <mxCell id="ep_-EoG4w_uuBe7_hAVL-4" value="" style="rounded=1;whiteSpace=wrap;html=1;" parent="1" vertex="1">
          <mxGeometry x="970" y="631" width="440" height="170" as="geometry" />
        </mxCell>
        <mxCell id="ep_-EoG4w_uuBe7_hAVL-1" value="" style="aspect=fixed;html=1;points=[];align=center;image;fontSize=12;image=img/lib/azure2/identity/Azure_Active_Directory.svg;" parent="1" vertex="1">
          <mxGeometry x="1005" y="698" width="70" height="64" as="geometry" />
        </mxCell>
        <mxCell id="ep_-EoG4w_uuBe7_hAVL-3" value="Azure Active Directory" style="text;html=1;strokeColor=none;fillColor=none;align=center;verticalAlign=middle;whiteSpace=wrap;rounded=0;" parent="1" vertex="1">
          <mxGeometry x="990" y="650" width="100" height="20" as="geometry" />
        </mxCell>
        <mxCell id="ep_-EoG4w_uuBe7_hAVL-5" value="" style="rounded=1;whiteSpace=wrap;html=1;" parent="1" vertex="1">
          <mxGeometry x="970" y="837" width="440" height="243" as="geometry" />
        </mxCell>
        <mxCell id="ep_-EoG4w_uuBe7_hAVL-6" value="Azure AppService" style="text;html=1;strokeColor=none;fillColor=none;align=center;verticalAlign=middle;whiteSpace=wrap;rounded=0;" parent="1" vertex="1">
          <mxGeometry x="990" y="956" width="100" height="20" as="geometry" />
        </mxCell>
        <mxCell id="ep_-EoG4w_uuBe7_hAVL-2" value="" style="verticalLabelPosition=bottom;html=1;verticalAlign=top;align=center;strokeColor=none;fillColor=#00BEF2;shape=mxgraph.azure.azure_website;pointerEvents=1;" parent="1" vertex="1">
          <mxGeometry x="1010" y="886" width="50" height="50" as="geometry" />
        </mxCell>
        <mxCell id="ep_-EoG4w_uuBe7_hAVL-7" value="" style="verticalLabelPosition=bottom;html=1;verticalAlign=top;align=center;strokeColor=none;fillColor=#00BEF2;shape=mxgraph.azure.user;" parent="1" vertex="1">
          <mxGeometry x="1134" y="690" width="28.5" height="30" as="geometry" />
        </mxCell>
        <mxCell id="ep_-EoG4w_uuBe7_hAVL-12" value="" style="verticalLabelPosition=bottom;html=1;verticalAlign=top;align=center;strokeColor=none;fillColor=#00BEF2;shape=mxgraph.azure.user;" parent="1" vertex="1">
          <mxGeometry x="1134" y="732" width="28.5" height="30" as="geometry" />
        </mxCell>
        <mxCell id="ep_-EoG4w_uuBe7_hAVL-14" value="&lt;font style=&quot;font-size: 48px&quot; color=&quot;#006600&quot;&gt;&lt;b&gt;DJ&lt;/b&gt;&lt;/font&gt;" style="text;html=1;strokeColor=none;fillColor=none;align=center;verticalAlign=middle;whiteSpace=wrap;rounded=0;" parent="1" vertex="1">
          <mxGeometry x="1310" y="901" width="40" height="20" as="geometry" />
        </mxCell>
        <mxCell id="ep_-EoG4w_uuBe7_hAVL-17" value="" style="shape=flexArrow;endArrow=classic;startArrow=classic;html=1;fillColor=#ffffff;" parent="1" edge="1">
          <mxGeometry width="100" height="100" relative="1" as="geometry">
            <mxPoint x="1240" y="940" as="sourcePoint" />
            <mxPoint x="1240" y="762" as="targetPoint" />
          </mxGeometry>
        </mxCell>
        <mxCell id="ep_-EoG4w_uuBe7_hAVL-20" value="SCIM2" style="text;html=1;strokeColor=none;fillColor=none;align=center;verticalAlign=middle;whiteSpace=wrap;rounded=0;" parent="1" vertex="1">
          <mxGeometry x="1180" y="850" width="40" height="20" as="geometry" />
        </mxCell>
        <mxCell id="ep_-EoG4w_uuBe7_hAVL-23" value="user1: AAAA-BBB" style="text;html=1;strokeColor=none;fillColor=none;align=center;verticalAlign=middle;whiteSpace=wrap;rounded=0;" parent="1" vertex="1">
          <mxGeometry x="1164" y="690" width="136" height="20" as="geometry" />
        </mxCell>
        <mxCell id="ep_-EoG4w_uuBe7_hAVL-24" value="user2: CCC-DDD" style="text;html=1;strokeColor=none;fillColor=none;align=center;verticalAlign=middle;whiteSpace=wrap;rounded=0;" parent="1" vertex="1">
          <mxGeometry x="1164" y="732" width="136" height="20" as="geometry" />
        </mxCell>
        <mxCell id="ep_-EoG4w_uuBe7_hAVL-30" value="" style="shape=internalStorage;whiteSpace=wrap;html=1;backgroundOutline=1;" parent="1" vertex="1">
          <mxGeometry x="1240" y="956" width="160" height="84" as="geometry" />
        </mxCell>
        <mxCell id="ep_-EoG4w_uuBe7_hAVL-31" value="user1: AAAA-BBB" style="text;html=1;strokeColor=none;fillColor=none;align=center;verticalAlign=middle;whiteSpace=wrap;rounded=0;" parent="1" vertex="1">
          <mxGeometry x="1260" y="980" width="136" height="20" as="geometry" />
        </mxCell>
        <mxCell id="ep_-EoG4w_uuBe7_hAVL-32" value="user2: CCC-DDD" style="text;html=1;strokeColor=none;fillColor=none;align=center;verticalAlign=middle;whiteSpace=wrap;rounded=0;" parent="1" vertex="1">
          <mxGeometry x="1260" y="1000" width="136" height="20" as="geometry" />
        </mxCell>
      </root>
    </mxGraphModel>
  </diagram>
</mxfile>
